<svg width="72" height="16" viewBox="0 0 72 16" fill="none" xmlns="http://www.w3.org/2000/svg">
<g clip-path="url(#clip0_48_53)">
<path fill-rule="evenodd" clip-rule="evenodd" d="M10.0517 11.4042C10.0517 13.917 8.04715 15.7394 4.8623 15.7394C3.94725 15.7136 3.0464 15.5077 2.21183 15.1336C1.37726 14.7594 0.625498 14.2245 0 13.5596L1.06468 12.3848C2.06196 13.3318 3.23464 14.2522 4.84085 14.2522C6.62553 14.2522 8.54885 13.2541 8.54885 11.4606C8.54885 9.97105 7.36315 8.99962 4.87072 8.2339C2.03055 7.36762 0.589787 6.19276 0.589787 3.98248C0.588255 1.79505 2.44187 0 5.08596 0C7.05983 0 8.29532 0.839619 9.49711 1.91238L8.45004 3.07276C7.39609 2.14095 6.39192 1.50933 5.15949 1.50933C3.63064 1.50857 2.1217 2.49295 2.1217 3.90857C2.1217 5.19162 2.86009 6.00914 5.46894 6.8061C7.85872 7.54057 10.0517 8.67886 10.0517 11.4027V11.4042ZM22.9389 1.4461C22.9389 2.13486 23.498 2.6941 24.1882 2.6941C24.5198 2.6941 24.8377 2.56229 25.0721 2.32838C25.2465 2.1538 25.3652 1.93186 25.4133 1.69042C25.4614 1.44897 25.4367 1.19878 25.3424 0.971236C25.248 0.74369 25.0883 0.548925 24.883 0.41138C24.6778 0.273834 24.4364 0.199636 24.1889 0.198095C23.4988 0.198095 22.9397 0.756571 22.9397 1.4461H22.9389ZM38.5491 14.9912C38.5491 14.9912 39.4759 15.7432 42.5658 15.7432L42.5643 15.7425C45.6143 15.7425 48.0899 13.5162 48.0899 10.4739C48.0899 7.43238 45.6158 5.21448 42.5658 5.21448C41.7003 5.19162 40.8424 5.36686 40.055 5.72724V0.456381H38.5491V14.9912ZM49.8539 10.4891C49.8539 13.5322 52.3249 16 55.3741 16C58.4234 16 60.8959 13.533 60.8967 10.4899C60.8967 7.44686 58.4242 4.97981 55.3749 4.97981C52.3264 4.97981 49.8539 7.4461 49.8539 10.4891ZM70.0338 15.4949H72L67.6524 10.3261L71.7066 5.47886H69.7519L66.6728 9.16038L63.5775 5.47886H61.6113L65.6946 10.3322L61.3777 15.4949H63.3317L66.6743 11.4987L70.0338 15.4949ZM55.3887 6.46857C54.5926 6.46909 53.8146 6.7047 53.1532 7.14552C52.4919 7.58635 51.977 8.21255 51.6738 8.94476C51.3693 9.67793 51.2895 10.4843 51.4445 11.2624C51.5994 12.0406 51.9822 12.7558 52.5447 13.3181C53.1059 13.879 53.8221 14.2613 54.6022 14.4162C55.3824 14.5711 56.1913 14.4918 56.926 14.1882C57.6615 13.8831 58.2897 13.3682 58.7314 12.7084C59.173 12.0486 59.4084 11.2735 59.4077 10.4808C59.4077 8.26514 57.6077 6.46857 55.3879 6.46857H55.3887ZM42.5742 6.72229C41.6739 6.73472 40.7985 7.01756 40.0626 7.53371V13.7394C40.8426 14.1178 41.7072 14.2904 42.5734 14.2408C44.7917 14.2408 46.5909 12.6941 46.5909 10.4815C46.5909 8.26895 44.7901 6.72152 42.5719 6.72152H42.5734L42.5742 6.72229ZM35.041 0.457143H33.5344V15.4926H35.041V0.457143ZM28.5174 0.457143H30.024V15.4926H28.5174V0.457143ZM13.9473 10.24L13.9427 10.2354L13.9473 10.2309V10.24ZM13.9473 15.4926V10.24L19.2117 15.4949H21.3419L16.0721 10.2354L20.8432 5.47124H18.7123L13.9466 10.2309V0.457143H12.4399V15.4926H13.9466H13.9473ZM23.4889 15.4949H24.9947V5.47124H23.4889V15.4949Z" fill="white"/>
</g>
<defs>
<clipPath id="clip0_48_53">
<rect width="72" height="16" fill="white"/>
</clipPath>
</defs>
</svg>
